<svg xmlns="http://www.w3.org/2000/svg" width="119.64" height="39.99" viewBox="0 0 119.64 39.99">
  <g id="Group_18" data-name="Group 18" transform="translate(-0.02)">
    <g id="Group_17" data-name="Group 17">
      <path id="Path_57" data-name="Path 57" d="M110.13,0H7.52a13.21,13.21,0,0,0-2,.18,6.67,6.67,0,0,0-1.9.63A6.44,6.44,0,0,0,2,2,6.26,6.26,0,0,0,.82,3.62,6.6,6.6,0,0,0,.2,5.52a13,13,0,0,0-.18,2c0,.31,0,.61,0,.92V32.48a13,13,0,0,0,.18,2,6.59,6.59,0,0,0,.63,1.9A6.21,6.21,0,0,0,2,38a6.27,6.27,0,0,0,1.62,1.18,6.7,6.7,0,0,0,1.9.63,13.45,13.45,0,0,0,2,.18H112.14a13.28,13.28,0,0,0,2-.18,6.8,6.8,0,0,0,1.91-.63A6.28,6.28,0,0,0,117.67,38a6.39,6.39,0,0,0,1.18-1.61,6.6,6.6,0,0,0,.62-1.9,13.511,13.511,0,0,0,.19-2V7.53a13.51,13.51,0,0,0-.19-2,6.62,6.62,0,0,0-.62-1.9A6.47,6.47,0,0,0,116,.82a6.77,6.77,0,0,0-1.91-.63,13,13,0,0,0-2-.18h-2Z"/>
      <path id="Path_58" data-name="Path 58" d="M8.44,39.13h-.9A12.69,12.69,0,0,1,5.67,39,5.88,5.88,0,0,1,4,38.4a5.41,5.41,0,0,1-1.4-1,5.32,5.32,0,0,1-1-1.4,5.72,5.72,0,0,1-.54-1.66,12.41,12.41,0,0,1-.17-1.87c0-.21,0-.91,0-.91V7.55a12.37,12.37,0,0,1,.17-1.87A5.76,5.76,0,0,1,1.6,4a5.37,5.37,0,0,1,1-1.4A5.57,5.57,0,0,1,4,1.6a5.82,5.82,0,0,1,1.65-.54A12.59,12.59,0,0,1,7.54.89H112.13a12.38,12.38,0,0,1,1.86.16,5.94,5.94,0,0,1,1.67.55A5.59,5.59,0,0,1,118.07,4a5.76,5.76,0,0,1,.54,1.65,13,13,0,0,1,.17,1.89V32.47a12.731,12.731,0,0,1-.17,1.85,5.74,5.74,0,0,1-.54,1.67,5.48,5.48,0,0,1-1,1.39,5.41,5.41,0,0,1-1.4,1A5.86,5.86,0,0,1,114,39a12.54,12.54,0,0,1-1.87.16H8.44Z"/>
      <g id="Group_15" data-name="Group 15">
        <g id="Group_14" data-name="Group 14">
          <g id="Group_13" data-name="Group 13">
            <path id="Path_59" data-name="Path 59" d="M24.77,20.3a5,5,0,0,1,2.36-4.15,5.07,5.07,0,0,0-4-2.16c-1.68-.18-3.31,1-4.16,1s-2.19-1-3.61-1a5.32,5.32,0,0,0-4.47,2.73C9,20.11,10.4,25,12.25,27.74c.93,1.33,2,2.81,3.43,2.75s1.91-.88,3.58-.88,2.14.88,3.59.85,2.43-1.33,3.32-2.67a11,11,0,0,0,1.52-3.09A4.78,4.78,0,0,1,24.77,20.3Z" fill="#fff"/>
            <path id="Path_60" data-name="Path 60" d="M22,12.21a4.87,4.87,0,0,0,1.11-3.49,5,5,0,0,0-3.21,1.66,4.64,4.64,0,0,0-1.14,3.36A4.1,4.1,0,0,0,22,12.21Z" fill="#fff"/>
          </g>
        </g>
        <path id="Path_61" data-name="Path 61" d="M42.3,27.14H37.57L36.43,30.5h-2l4.48-12.42H41L45.48,30.5h-2Zm-4.24-1.55h3.75L40,20.14h-.05Z" fill="#fff"/>
        <path id="Path_62" data-name="Path 62" d="M55.16,26c0,2.81-1.51,4.62-3.78,4.62A3.07,3.07,0,0,1,48.53,29h0v4.48h-1.9v-12h1.8v1.51h0a3.21,3.21,0,0,1,2.88-1.6C53.65,21.35,55.16,23.16,55.16,26Zm-1.91,0c0-1.83-.95-3-2.39-3s-2.37,1.23-2.37,3,1,3,2.38,3S53.25,27.82,53.25,26Z" fill="#fff"/>
        <path id="Path_63" data-name="Path 63" d="M65.12,26c0,2.81-1.51,4.62-3.78,4.62A3.07,3.07,0,0,1,58.5,29h0v4.48H56.6v-12h1.8v1.51h0a3.21,3.21,0,0,1,2.88-1.6C63.61,21.35,65.12,23.16,65.12,26Zm-1.91,0c0-1.83-.95-3-2.39-3s-2.37,1.23-2.37,3,1,3,2.38,3,2.39-1.2,2.39-3Z" fill="#fff"/>
        <path id="Path_64" data-name="Path 64" d="M71.71,27c.14,1.23,1.33,2,3,2s2.69-.81,2.69-1.92-.68-1.54-2.29-1.94l-1.61-.39c-2.28-.55-3.34-1.62-3.34-3.35,0-2.14,1.87-3.61,4.52-3.61s4.42,1.47,4.48,3.61h-1.9c-.11-1.24-1.14-2-2.63-2s-2.52.76-2.52,1.86c0,.88.65,1.39,2.25,1.79l1.37.34c2.55.6,3.61,1.63,3.61,3.44,0,2.32-1.85,3.78-4.79,3.78-2.75,0-4.61-1.42-4.73-3.67Z" fill="#fff"/>
        <path id="Path_65" data-name="Path 65" d="M83.35,19.3v2.14h1.72v1.47H83.35v5c0,.78.34,1.14,1.1,1.14a5.811,5.811,0,0,0,.61,0v1.46a5.1,5.1,0,0,1-1,.09c-1.83,0-2.55-.69-2.55-2.44V22.91H80.16V21.44h1.32V19.3Z" fill="#fff"/>
        <path id="Path_66" data-name="Path 66" d="M86.07,26c0-2.85,1.68-4.64,4.29-4.64s4.29,1.79,4.29,4.64S93,30.61,90.36,30.61,86.07,28.83,86.07,26Zm6.7,0c0-2-.9-3.11-2.4-3.11S88,24,88,26s.89,3.11,2.4,3.11,2.4-1.14,2.4-3.11Z" fill="#fff"/>
        <path id="Path_67" data-name="Path 67" d="M96.19,21.44H98V23h0a2.16,2.16,0,0,1,2.18-1.64,2.87,2.87,0,0,1,.64.07v1.74A2.6,2.6,0,0,0,100,23a1.87,1.87,0,0,0-2,2.13V30.5H96.19Z" fill="#fff"/>
        <path id="Path_68" data-name="Path 68" d="M109.38,27.84c-.25,1.64-1.85,2.77-3.9,2.77-2.63,0-4.27-1.76-4.27-4.6s1.64-4.68,4.19-4.68,4.08,1.72,4.08,4.47v.64h-6.39v.11a2.36,2.36,0,0,0,2.14,2.56h.29a2,2,0,0,0,2.09-1.27Zm-6.28-2.7h4.53a2.18,2.18,0,0,0-2.05-2.29h-.17a2.29,2.29,0,0,0-2.31,2.28h0Z" fill="#fefefe"/>
      </g>
      <g id="Group_16" data-name="Group 16">
        <path id="Path_69" data-name="Path 69" d="M37.83,8.73a2.64,2.64,0,0,1,2.81,3c0,1.91-1,3-2.81,3H35.67v-6ZM36.6,13.85h1.13a1.88,1.88,0,0,0,2-2.15,1.88,1.88,0,0,0-2-2.13H36.6Z" fill="#fff"/>
        <path id="Path_70" data-name="Path 70" d="M41.68,12.44a2.13,2.13,0,1,1,4.25,0,2.13,2.13,0,1,1-4.25,0Zm3.33,0c0-1-.44-1.55-1.21-1.55s-1.21.57-1.21,1.55S43,14,43.81,14,45,13.42,45,12.44Z" fill="#fff"/>
        <path id="Path_71" data-name="Path 71" d="M51.57,14.7h-.92l-.93-3.32h-.07l-.93,3.32h-.91l-1.24-4.5h.9l.81,3.44h.07l.93-3.44h.85L51,13.63h.07l.8-3.44h.89Z" fill="#fff"/>
        <path id="Path_72" data-name="Path 72" d="M53.85,10.19h.86v.72h.07a1.35,1.35,0,0,1,1.34-.8,1.46,1.46,0,0,1,1.56,1.67V14.7h-.89V12c0-.72-.31-1.08-1-1.08a1,1,0,0,0-1.08,1.14V14.7h-.89Z" fill="#fff"/>
        <path id="Path_73" data-name="Path 73" d="M59.09,8.44H60V14.7h-.89Z" fill="#fff"/>
        <path id="Path_74" data-name="Path 74" d="M61.22,12.44a2.13,2.13,0,1,1,4.25,0,2.13,2.13,0,1,1-4.25,0Zm3.33,0c0-1-.44-1.55-1.21-1.55s-1.21.57-1.21,1.55S62.57,14,63.34,14,64.55,13.42,64.55,12.44Z" fill="#fff"/>
        <path id="Path_75" data-name="Path 75" d="M66.4,13.42c0-.81.6-1.28,1.67-1.34L69.3,12v-.39c0-.48-.31-.74-.92-.74s-.84.18-.94.5h-.86c.09-.77.82-1.27,1.84-1.27s1.77.56,1.77,1.51V14.7h-.86v-.63h-.07a1.51,1.51,0,0,1-1.35.71,1.36,1.36,0,0,1-1.49-1.21A1.087,1.087,0,0,1,66.4,13.42ZM69.3,13v-.38l-1.1.07c-.62,0-.9.25-.9.65s.35.64.83.64a1.06,1.06,0,0,0,1.16-.95Z" fill="#fff"/>
        <path id="Path_76" data-name="Path 76" d="M71.35,12.44c0-1.42.73-2.32,1.87-2.32a1.48,1.48,0,0,1,1.38.79h.07V8.44h.89V14.7H74.7V14h-.07a1.56,1.56,0,0,1-1.41.79C72.07,14.77,71.35,13.87,71.35,12.44Zm.92,0c0,1,.45,1.53,1.2,1.53s1.21-.58,1.21-1.53-.47-1.53-1.21-1.53S72.27,11.49,72.27,12.44Z" fill="#fff"/>
        <path id="Path_77" data-name="Path 77" d="M79.23,12.44a2.13,2.13,0,1,1,4.25,0,2.13,2.13,0,1,1-4.25,0Zm3.33,0c0-1-.44-1.55-1.21-1.55s-1.21.57-1.21,1.55S80.58,14,81.36,14s1.2-.58,1.2-1.56Z" fill="#fff"/>
        <path id="Path_78" data-name="Path 78" d="M84.67,10.19h.86v.72h.07a1.35,1.35,0,0,1,1.34-.8,1.46,1.46,0,0,1,1.56,1.67V14.7h-.89V12c0-.72-.31-1.08-1-1.08a1,1,0,0,0-1.08,1.14V14.7h-.89Z" fill="#fff"/>
        <path id="Path_79" data-name="Path 79" d="M93.52,9.07v1.14h1V11h-1v2.32c0,.47.19.68.64.68h.34v.74a2.92,2.92,0,0,1-.48,0c-1,0-1.38-.35-1.38-1.22V11h-.71v-.75h.71V9.07Z" fill="#fff"/>
        <path id="Path_80" data-name="Path 80" d="M95.7,8.44h.88v2.48h.07A1.39,1.39,0,0,1,98,10.11a1.48,1.48,0,0,1,1.55,1.68V14.7h-.89V12c0-.72-.33-1.08-1-1.08a1.05,1.05,0,0,0-1.13,1.14V14.7H95.7Z" fill="#fff"/>
        <path id="Path_81" data-name="Path 81" d="M104.76,13.48a1.83,1.83,0,0,1-2,1.3,2,2,0,0,1-2.08-2.32,2.08,2.08,0,0,1,1.78-2.33h.29c1.25,0,2,.86,2,2.27v.31h-3.18A1.19,1.19,0,0,0,102.72,14h.11a1.08,1.08,0,0,0,1.07-.55ZM101.64,12h2.27a1.09,1.09,0,0,0-1-1.16h-.11A1.15,1.15,0,0,0,101.64,12Z" fill="#fff"/>
      </g>
    </g>
  </g>
</svg>
