<svg xmlns="http://www.w3.org/2000/svg" width="86.782" height="94" viewBox="0 0 86.782 94">
  <g id="Group_5" data-name="Group 5" transform="translate(-0.004 0)">
    <g id="Group_4" data-name="Group 4">
      <path id="Path_17" data-name="Path 17" d="M1.65,32,41.43,57.27a3.62,3.62,0,0,0,3.9,0L85.11,32a3.61,3.61,0,0,0,1.07-5,3.56,3.56,0,0,0-1.07-1.08L45.33.57a3.62,3.62,0,0,0-3.9,0L1.65,25.88a3.63,3.63,0,0,0-1.07,5A3.67,3.67,0,0,0,1.65,32Z" fill="#077de3"/>
      <path id="Path_18" data-name="Path 18" d="M81.2,44,43.38,68,5.56,44a3.62,3.62,0,0,0-3.91,6L41.43,75.35a3.62,3.62,0,0,0,3.9,0L85.11,50a3.62,3.62,0,0,0-3.91-6Z" fill="#3e8fd6"/>
      <path id="Path_19" data-name="Path 19" d="M81.2,62,43.38,86.09,5.56,62a3.62,3.62,0,0,0-3.91,6.08L41.43,93.43a3.62,3.62,0,0,0,3.9,0L85.11,68.12A3.631,3.631,0,1,0,81.2,62Z" fill="#8bc0ee"/>
    </g>
  </g>
</svg>
