<svg id="Group_6" data-name="Group 6" xmlns="http://www.w3.org/2000/svg" width="263.74" height="137.661" viewBox="0 0 263.74 137.661">
  <path id="path2998" d="M64.84,30.54H34.07v9.13H55.89C54.81,52.48,44.16,57.94,34.1,57.94A24,24,0,0,1,10,33.63,24,24,0,0,1,34.13,9.16a23.69,23.69,0,0,1,16.46,6.6L57,9.14S48.77,0,33.81,0C14.75,0,0,16.09,0,33.46A34,34,0,0,0,34.29,67.09c18,0,31.11-12.3,31.11-30.5a27.13,27.13,0,0,0-.56-6.05Z" fill="#4885ed"/>
  <path id="path3000" d="M90.05,23.93A21.3,21.3,0,0,0,68.37,45.31a21.66,21.66,0,0,0,43.32.25c0-14.28-11.26-21.63-21.64-21.63Zm.13,8.47c6.21,0,12.09,5,12.09,13.11,0,7.91-5.86,13.08-12.12,13.08-6.88,0-12.31-5.51-12.31-13.15,0-7.47,5.36-13,12.34-13Z" fill="#db3236"/>
  <path id="path3005" d="M137.2,23.93a21.3,21.3,0,0,0-21.68,21.38,21.658,21.658,0,1,0,43.315.25c0-14.28-11.255-21.63-21.635-21.63Zm.12,8.47c6.21,0,12.1,5,12.1,13.11,0,7.91-5.86,13.08-12.13,13.08-6.88,0-12.31-5.51-12.31-13.15,0-7.47,5.36-13,12.34-13Z" fill="#f4c20d"/>
  <path id="path3007" d="M183.44,24c-11.59,0-20.7,10.15-20.7,21.54,0,13,10.56,21.59,20.5,21.59,6.14,0,9.41-2.44,11.82-5.24v4.25c0,7.44-4.51,11.9-11.33,11.9a11.85,11.85,0,0,1-11-7.68l-8.29,3.46c2.94,6.22,8.86,12.7,19.4,12.7,11.52,0,20.31-7.25,20.31-22.48V25.24H195.1V28.9A15.23,15.23,0,0,0,183.44,24Zm.84,8.45c5.68,0,11.51,4.85,11.51,13.14S190,58.6,184.15,58.6c-6.18,0-11.93-5-11.93-13,0-8.28,6-13.22,12.06-13.22Z" fill="#4885ed"/>
  <path id="path3011" d="M244.3,23.9c-10.93,0-20.11,8.7-20.11,21.53,0,13.58,10.23,21.64,21.16,21.64,9.13,0,14.73-5,18.07-9.46l-7.46-5a12,12,0,0,1-10.56,5.93c-6.06,0-8.85-3.32-10.58-6.53l28.92-12-1.5-3.52c-2.8-6.88-9.31-12.63-17.94-12.63Zm.38,8.29a8.58,8.58,0,0,1,8,4.61l-19.31,8.07c-.83-6.25,5.09-12.68,11.33-12.68Z" fill="#db3236"/>
  <path id="path3015" d="M210.41,65.79h9.49V2.23h-9.49Z" fill="#3cba54"/>
  <path id="Path_20" data-name="Path 20" d="M40.6,114.53H35.76v-4H40.6V107.7a8.2,8.2,0,0,1,1.13-4.33,7.78,7.78,0,0,1,3-2.85,8.92,8.92,0,0,1,4.22-1,11,11,0,0,1,3.86.62v4.27c-.61-.24-1.2-.43-1.75-.59a7.45,7.45,0,0,0-2-.23,4,4,0,0,0-2.94,1.21A4.52,4.52,0,0,0,45,108.2v2.37h6.74v4H45v22.3H40.6Z" fill="#73716f"/>
  <path id="Path_21" data-name="Path 21" d="M58.1,135.8a13,13,0,0,1-4.81-5.05,15.31,15.31,0,0,1,0-14.1,13,13,0,0,1,4.81-5.05,14,14,0,0,1,13.91,0,13,13,0,0,1,4.81,5.05,15.31,15.31,0,0,1,0,14.1A13,13,0,0,1,72,135.8a14,14,0,0,1-13.91,0Zm11.46-3.32A9.05,9.05,0,0,0,72.91,129a11.78,11.78,0,0,0,0-10.6,9.05,9.05,0,0,0-3.35-3.48,8.78,8.78,0,0,0-4.5-1.21,8.93,8.93,0,0,0-7.91,4.69,11.78,11.78,0,0,0,0,10.6,8.928,8.928,0,0,0,7.91,4.69,8.88,8.88,0,0,0,4.5-1.21Z" fill="#73716f"/>
  <path id="Path_22" data-name="Path 22" d="M80.6,110.57h4.17v4.22H85a7.07,7.07,0,0,1,3-3.58,8.51,8.51,0,0,1,4.64-1.41,8.4,8.4,0,0,1,3.09.51v4.74a8.19,8.19,0,0,0-3.71-.82,6.1,6.1,0,0,0-3.5,1.08,7.85,7.85,0,0,0-2.55,2.91,8.42,8.42,0,0,0-1,3.93v14.68H80.6Z" fill="#73716f"/>
  <path id="Path_23" data-name="Path 23" d="M107.68,100h12.46a11.86,11.86,0,0,1,5.66,1.4,10.82,10.82,0,0,1,4.2,3.88,10.37,10.37,0,0,1,1.57,5.64,10.21,10.21,0,0,1-1.16,4.79,10.61,10.61,0,0,1-3.19,3.7,11.43,11.43,0,0,1-4.5,2l-.11.16L133,136.62v.21h-5.15l-10-15H112v15h-4.33Zm12.2,17.77a7.53,7.53,0,0,0,3.58-.88,6.93,6.93,0,0,0,2.68-2.44,6.43,6.43,0,0,0,1-3.53,6.51,6.51,0,0,0-.87-3.24,7.14,7.14,0,0,0-2.45-2.53,6.7,6.7,0,0,0-3.63-1H112v13.59Z" fill="#73716f"/>
  <path id="Path_24" data-name="Path 24" d="M138.88,135.85a12.54,12.54,0,0,1-4.66-5,15.09,15.09,0,0,1-1.67-7.13,15.6,15.6,0,0,1,1.57-7,12.74,12.74,0,0,1,4.45-5.1,11.85,11.85,0,0,1,6.7-1.9,12.62,12.62,0,0,1,6.69,1.72,11.51,11.51,0,0,1,4.35,4.76,15.41,15.41,0,0,1,1.52,7,4.779,4.779,0,0,1-.16,1.34H136.92a10.45,10.45,0,0,0,1.45,5,8.34,8.34,0,0,0,3.27,3.09,8.94,8.94,0,0,0,4.14,1,8.54,8.54,0,0,0,7.77-4.74l3.71,1.8a13.23,13.23,0,0,1-4.61,5.05,13.9,13.9,0,0,1-13.77,0Zm14.31-14.93a8.54,8.54,0,0,0-.92-3.3,7.16,7.16,0,0,0-2.6-2.78,8.2,8.2,0,0,0-4.46-1.13,7.38,7.38,0,0,0-5.22,2,9.54,9.54,0,0,0-2.81,5.23Z" fill="#73716f"/>
  <path id="Path_25" data-name="Path 25" d="M166.76,136.72a6.63,6.63,0,0,1-2.29-1.39,6.35,6.35,0,0,1-1.55-2.26,8.57,8.57,0,0,1-.51-3.14v-15.4h-4.58v-4h4.58v-7.41h4.37v7.41h6.39v4h-6.39v14.32a5.07,5.07,0,0,0,.83,3.19,3.54,3.54,0,0,0,2.83,1.13,5.35,5.35,0,0,0,2.88-.87v4.27a6.539,6.539,0,0,1-1.57.51,10.35,10.35,0,0,1-2,.16A8.15,8.15,0,0,1,166.76,136.72Z" fill="#73716f"/>
  <path id="Path_26" data-name="Path 26" d="M178.68,136.52a8.51,8.51,0,0,1-3.5-3.12,8.27,8.27,0,0,1-1.24-4.5,7.67,7.67,0,0,1,3.14-6.51A12.85,12.85,0,0,1,185,120a18,18,0,0,1,4.4.52,11.47,11.47,0,0,1,3.12,1.18v-1.59a5.91,5.91,0,0,0-2.06-4.71,7.67,7.67,0,0,0-5.2-1.78,8.84,8.84,0,0,0-4.07,1,7.44,7.44,0,0,0-2.93,2.65l-3.3-2.47a10.51,10.51,0,0,1,4.25-3.7,13.22,13.22,0,0,1,6-1.34c3.56,0,6.37.93,8.41,2.8a9.87,9.87,0,0,1,3.07,7.65v16.63h-4.17v-3.76h-.21a9.41,9.41,0,0,1-3.4,3.24,9.85,9.85,0,0,1-5.09,1.34,11.409,11.409,0,0,1-5.14-1.14Zm9.68-3.86a8.57,8.57,0,0,0,3-3,8,8,0,0,0,1.14-4.17,10.81,10.81,0,0,0-3-1.34,13.909,13.909,0,0,0-3.81-.51,8.41,8.41,0,0,0-5.43,1.49,4.74,4.74,0,0,0-1.83,3.86,4.29,4.29,0,0,0,1.65,3.5,6.42,6.42,0,0,0,4.17,1.34,8,8,0,0,0,4.11-1.17Z" fill="#73716f"/>
  <path id="Path_27" data-name="Path 27" d="M200.61,104.8a3,3,0,0,1-.93-2.21,2.93,2.93,0,0,1,.93-2.19,3.18,3.18,0,0,1,4.43,0,3.114,3.114,0,0,1,.02,4.4,3.13,3.13,0,0,1-4.45,0Zm0,5.77H205v26.26h-4.32Z" fill="#73716f"/>
  <path id="Path_28" data-name="Path 28" d="M209.36,100h4.38v36.87h-4.38Z" fill="#73716f"/>
</svg>
