<svg xmlns="http://www.w3.org/2000/svg" width="126.7" height="106.46" viewBox="0 0 126.7 106.46">
  <g id="Group_1" data-name="Group 1" transform="translate(0 -0.5)">
    <path id="Path_1" data-name="Path 1" d="M98.68,43.24H90.55V28.09A27.09,27.09,0,0,0,63.46,1h0A27.09,27.09,0,0,0,36.37,28.09v7.44h-.12v7.71H28A1.71,1.71,0,0,0,26.32,45v59.76a1.7,1.7,0,0,0,1.7,1.7H98.68a1.7,1.7,0,0,0,1.7-1.7V45a1.71,1.71,0,0,0-1.7-1.76ZM63.46,8.14a20,20,0,0,1,19.95,20v15.1H43.5V28.09A20,20,0,0,1,63.46,8.14Z" fill="#fff" stroke="#1976d2" stroke-width="1"/>
    <path id="Path_2" data-name="Path 2" d="M26.43,67.14H0L4.22,83.42,0,100.47H26.43Z" fill="#2979ff"/>
    <path id="Path_3" data-name="Path 3" d="M100.27,100.47H126.7l-4.22-16.28,4.22-17.05H100.27Z" fill="#2979ff"/>
    <path id="Path_4" data-name="Path 4" d="M12.74,92.47l13.69,8V78.72H12.74Z" fill="#2979ff"/>
    <path id="Path_5" data-name="Path 5" d="M113.96,92.47l-13.69,8V78.72h13.69Z" fill="#2979ff"/>
    <rect id="Rectangle_1" data-name="Rectangle 1" width="101.22" height="33.32" transform="translate(12.74 59.14)" fill="#2979ff"/>
    <path id="Path_6" data-name="Path 6" d="M32.48,76.75h-6v6.59H24.23V68.27h2.29v6.46h6V68.27H34.8V83.34H32.48Z" fill="#f9f9f9"/>
    <path id="Path_7" data-name="Path 7" d="M40.5,70.31H36.37v-2H46.91v2H42.79v13H40.5Z" fill="#f0f7f6"/>
    <path id="Path_8" data-name="Path 8" d="M52.35,70.31H48.22v-2H58.76v2H54.64v13H52.35Z" fill="#fff"/>
    <path id="Path_9" data-name="Path 9" d="M60.38,68.27h5.45a8.8,8.8,0,0,1,1.719.17,4.47,4.47,0,0,1,1.671.89,3.59,3.59,0,0,1,1.16,1.44,4.67,4.67,0,0,1,.46,2.15,4.56,4.56,0,0,1-1.18,3,4.46,4.46,0,0,1-3.53,1.49H62.66v5.88H60.38Zm2.28,7H66a2.43,2.43,0,0,0,2-.76,2.5,2.5,0,0,0,.61-1.65,2.85,2.85,0,0,0-.25-1.27,1.9,1.9,0,0,0-.72-.74A2.94,2.94,0,0,0,66,70.43H62.7Z" fill="#fcfffe"/>
    <path id="Path_10" data-name="Path 10" d="M77.38,81.18c2,0,3-.73,3-2.1,0-1.12-.64-1.8-2-2l-2-.27a5,5,0,0,1-3-1.44,4,4,0,0,1-1-2.79A4.09,4.09,0,0,1,73.7,69.4a5.07,5.07,0,0,1,3.6-1.22,8.48,8.48,0,0,1,4.89,1.56l-1.27,1.88a6.9,6.9,0,0,0-3.73-1.16,2.85,2.85,0,0,0-1.76.53,1.94,1.94,0,0,0-.75,1.63,1.7,1.7,0,0,0,.5,1.18,2.92,2.92,0,0,0,1.63.74c.41.07,1,.15,1.69.24a4.67,4.67,0,0,1,3.13,1.52,4.24,4.24,0,0,1,1,2.81c-.07,2.88-1.84,4.34-5.29,4.38a8.52,8.52,0,0,1-5.75-2.07l1.5-1.71a6.65,6.65,0,0,0,4.29,1.47Z" fill="#fdfdfd"/>
    <path id="Path_11" data-name="Path 11" d="M84.93,76.37h2.16v2.16H84.93Zm0,4.81h2.16v2.16H84.93Z" fill="#fefefe"/>
    <path id="Path_12" data-name="Path 12" d="M93.77,68.15h1.65L90.36,83.46H88.71Z" fill="#f5f8f7"/>
    <path id="Path_13" data-name="Path 13" d="M100.82,68.15h1.65L97.41,83.46H95.75Z" fill="#fff"/>
  </g>
</svg>
