<svg id="Group_2" data-name="Group 2" xmlns="http://www.w3.org/2000/svg" width="1724.17" height="313.42" viewBox="0 0 1724.17 313.42">
  <g id="Group_1" data-name="Group 1">
    <path id="Path_1" data-name="Path 1" d="M1354.11,43.5h-50l-127.2,250.13h43.36l33.49-65.79h150.3l33.46,65.79h43.84Zm-84.63,153.34,59.4-116.73,59.37,116.73Z"/>
    <path id="Path_2" data-name="Path 2" d="M1021.74,36.95,1051.4,2.74h65.95Z"/>
    <path id="Path_3" data-name="Path 3" d="M937.07,294.13h223.7v-28.4H975.64V179.37h137.43V149.99H975.64V71.61h183.95V43.77H937.07Z"/>
    <path id="Path_4" data-name="Path 4" d="M814.37,187.06c36.11-6.95,63.44-36.22,63.44-71,0-39.91-36-72.56-79.93-72.56H633.1V293.63h34.8v-105H770.12l76.25,105h45.39Zm-3.57-31-2.1.77-2.17.66-2.2.55-2.26.44-2.3.32-2.35.2-2.71.07h-125V73H794.63l2.78.07,2.35.2,2.3.32,2.25.43,2.21.55,2.17.66,2.1.77,2.05.87,2,1,1.94,1.06,1.87,1.17,1.79,1.23,1.73,1.33L823.8,84l1.57,1.47L826.85,87l1.39,1.57,1.31,1.63,1.24,1.67,1.14,1.72,1,1.75,1,1.79.87,1.81.76,1.81.67,1.84.59,1.86.5,1.88.4,1.89.32,1.91.23,2,.14,2,.05,2-.05,2-.12,2-.24,1.94-.31,1.91-.41,1.9-.5,1.87-.59,1.85-.67,1.82-.76,1.82-.87,1.81-1,1.79-1,1.75-1.14,1.7-1.23,1.69-1.31,1.63-1.4,1.57-1.48,1.52-1.57,1.46-1.65,1.4-1.73,1.32L818.64,152l-1.87,1.16-1.94,1.07-2,1Z"/>
    <path id="Path_5" data-name="Path 5" d="M419.11,0C325.06,0,248.8,70.17,248.8,156.71s76.28,156.71,170.31,156.71,170.3-70.18,170.3-156.71S513.15,0,419.11,0Zm0,284.6A127.89,127.89,0,1,1,547,156.71,127.89,127.89,0,0,1,419.11,284.6Z"/>
    <path id="Path_6" data-name="Path 6" d="M0,294.13V43.77H31.93V266.73H221.14v27.4Z"/>
    <path id="Path_7" data-name="Path 7" d="M1499.82,294.13h224.35V265.65H1534.98V43.77h-35.16Z"/>
    <path id="Path_8" data-name="Path 8" d="M155.99,131.48h29.49l44.23-85.91H192.19Z"/>
  </g>
</svg>
