<svg xmlns="http://www.w3.org/2000/svg" width="202.5" height="49.879" viewBox="0 0 202.5 49.879">
  <g id="Group_10" data-name="Group 10" transform="translate(0 -0.281)">
    <g id="Group_8" data-name="Group 8">
      <path id="Path_29" data-name="Path 29" d="M70.5,18a5.946,5.946,0,0,0-5.4,2.7l-.7,1.1v-10H61.2V36.9h3.2V26.3a5.538,5.538,0,0,1,1.3-3.7,4.9,4.9,0,0,1,3.6-1.4c3.2,0,4.8,1.8,4.8,5.1V36.7h3.2V25.5a7.426,7.426,0,0,0-1.9-5.2A5.8,5.8,0,0,0,70.5,18Z" fill="#1976d2"/>
      <path id="Path_30" data-name="Path 30" d="M149.6,29.6,144.8,18h-3.6l8.4,18.7L158.1,18h-3.6Z" fill="#1976d2"/>
      <path id="Path_31" data-name="Path 31" d="M200.7,20.2a6.321,6.321,0,0,0-5-2.2c-4.7-.2-6.1,3-6.1,3V18h-3.2V36.8h3.2V26.3a5.538,5.538,0,0,1,1.3-3.7,4.9,4.9,0,0,1,3.6-1.4c3.2,0,4.8,1.8,4.8,5.1V36.7h3.2V25.5A8.1,8.1,0,0,0,200.7,20.2Z" fill="#1976d2"/>
      <path id="Path_32" data-name="Path 32" d="M98.7,20.4a9.59,9.59,0,0,0-5.8-2.1,9.1,9.1,0,0,0,0,18.2,9.369,9.369,0,0,0,5.8-2.1v2.4h3.5V29.9h0v-12H98.7ZM92.9,33.2a5.8,5.8,0,1,1,5.8-5.8A5.869,5.869,0,0,1,92.9,33.2Z" fill="#1976d2"/>
      <path id="Path_33" data-name="Path 33" d="M134.6,20.4a9.369,9.369,0,0,0-5.8-2.1,9.1,9.1,0,0,0,0,18.2,9.369,9.369,0,0,0,5.8-2.1v2.4h3.5V29.9h0v-12h-3.5Zm-5.8,12.8a5.8,5.8,0,1,1,5.8-5.8A5.8,5.8,0,0,1,128.8,33.2Z" fill="#1976d2"/>
      <path id="Path_34" data-name="Path 34" d="M176.3,20.4a9.59,9.59,0,0,0-5.8-2.1,9.1,9.1,0,1,0,0,18.2,9.59,9.59,0,0,0,5.8-2.1v2.4h3.5V29.9h0v-12h-3.5Zm-5.7,12.8a5.8,5.8,0,1,1,5.8-5.8A5.8,5.8,0,0,1,170.6,33.2Z" fill="#1976d2"/>
      <path id="Path_35" data-name="Path 35" d="M111.6,20.1V17.8h-3.2v19h3.2V24.4a3.356,3.356,0,0,1,1.1-2.3,3.916,3.916,0,0,1,2.6-.9,4.973,4.973,0,0,1,1.6.3V18H116A4.758,4.758,0,0,0,111.6,20.1Z" fill="#1976d2"/>
    </g>
    <g id="Group_9" data-name="Group 9">
      <path id="Path_36" data-name="Path 36" d="M22.9,35.3v.9a18.646,18.646,0,0,0,2-1c1-.5,2.1-1.1,3.2-1.6V30.1H23v5.2Z" fill="#1976d2"/>
      <path id="Path_37" data-name="Path 37" d="M2.4,19.6v.1L3,24.1l.1.7v.1l.5,3.7L3.8,30l.4,3.2.3,2,.4,2.6.3,2.6.1.9a3.75,3.75,0,0,0,1.1.1h1a23.963,23.963,0,0,0,4.7-.9v-.1l-.6-4.1-.1-1.1-.5-3.4L10.7,30l-.4-2.8-.1-.8L10,24.9l-.3-2.2-.4-3L9,18.1l-.1-.9-1.5.2-3.1.4-2,.2H2.2l.1.5Z" fill="#1976d2"/>
      <path id="Path_38" data-name="Path 38" d="M9.7,14.5l.3,2.6.3,2.6.3,2,.4,3.2.2,1.4v.2l.5,3.5.1.8.6,4.4v.2l.2,1.2L13,40v.2c1.5-.5,3.1-1,4.7-1.7V35.2h0V30.1h0V25h0V19.9h5.1V25h5.1V19.9H33V25h0v5h0v.7s.8-.5,1.2-.7c1.3-.8,2.6-1.5,3.9-2.3,1-.6,2-1.2,2.9-1.8l-.1-1.1.1-2.4v-.3l-.3-2.4-.2-1.9L40,14.5l-.2-1.3-.5-3.9-.1-.7-.3-2-.5.1L35.7,7l-2.4.3-.7.1c.2.5.5.9.7,1.3a.758.758,0,0,1,.2.4c.1,0,.1,0,.2-.1h.1a.909.909,0,0,1,.8.4c.1.1.1.3.2.4.1.4-.2.8-.7,1a14.8,14.8,0,0,0-.8-1.3h0q-1.05-1.65-2.1-3c-.6-.8-1.1-1.5-1.6-2.1-.2-.3-.4-.5-.6-.8a6.034,6.034,0,0,0-.8-.8,12.409,12.409,0,0,0-1.9-1.6,4.7,4.7,0,0,0-3-.9h-.2c-1.7.3-3,2-4.1,4.1-.4.8-.7,1.6-1.1,2.5-.2.6-.5,1.2-.7,1.8l-.3.9c-.2.6-.5,1.2-.7,1.8-.3.6-.5,1.2-.8,1.8a1,1,0,0,1-.5-.4c-.1-.1-.1-.2-.1-.4a.789.789,0,0,1,.8-.8h.2c.2-.6.4-1.2.6-2V9.5l-.8.1-2.9.3h-.3l-3.2.4.3,2.5ZM22.9.8h.3a3.882,3.882,0,0,1,2.4.7,3.039,3.039,0,0,1,.7.5l-.9-.3a8.614,8.614,0,0,0-2.1-.2.6.6,0,0,0-.4.1,6.444,6.444,0,0,0-2.4,1.1A4.16,4.16,0,0,1,22.9.8ZM17.3,9.9c.1-.2.1-.4.2-.6a1.421,1.421,0,0,0,.2-.6.1.1,0,0,1,.1-.1c.4-.9.7-1.9,1.1-2.7A9.908,9.908,0,0,1,20,4.2a5.176,5.176,0,0,1,3-1.9c.2,0,.3-.1.5-.1a3.812,3.812,0,0,1,1.5.1,5.806,5.806,0,0,1,3.1,1.6c.1,0,.1.1.2.1s.1.1.2.1a9.428,9.428,0,0,1,1,1c.4.5.8,1.1,1.2,1.7.2.2.3.5.5.7l-1.4.2-1.7.2L24,8.3l-1,.1L18.1,9H18l-.2.3h0l-.1.2-.5.7A.367.367,0,0,1,17.3,9.9Z" fill="#1976d2"/>
      <path id="Path_39" data-name="Path 39" d="M41.2,17l.4,2.7.2,1.9v.1l.4,3.2.1.5a9.223,9.223,0,0,1,.8-.5c.2-.1.3-.2.5-.3l.9-.6c1.5-.9,2.9-1.9,4.2-2.7.8-.5,1.6-1.1,2.3-1.5.6-.4,1.1-.7,1.6-1.1l-.3-2.5v-.3l-.2-1.3-.4-2.8h-.2l-2.7.2-3,.4-2.2.2-3,.3.2,1.5Z" fill="#1976d2"/>
      <path id="Path_40" data-name="Path 40" d="M28.2,24.9h0Z" fill="#1976d2"/>
      <path id="Path_41" data-name="Path 41" d="M28.1,30.1l.1-.1h-.1Z" fill="#1976d2"/>
      <path id="Path_42" data-name="Path 42" d="M7.4,47.7a12.7,12.7,0,0,0,3.3-.2,12.859,12.859,0,0,0,1.9-.4,43.27,43.27,0,0,0,5.2-1.6h0c1.6-.6,3.4-1.3,5.1-2.1,1.3-.6,2.7-1.2,4.1-1.9.4-.2.7-.4,1.1-.6l1.2-.6c1.3-.7,2.7-1.4,4-2.1,1.7-.9,3.3-1.9,5-2.8.1,0,.1-.1.2-.1s.1-.1.2-.1c1.7-1,3.4-2,5-3,1.2-.8,2.4-1.5,3.6-2.2.6-.3,1.1-.7,1.6-1,1.1-.7,3-1.9,3-1.9s1.4-.9,1.9-1.3l-.1-.6v-.5l-.4-3.3c-.9.6-1.9,1.2-3,2-.4.3-.9.6-1.3.9-.2.1-.4.3-.6.4-1.4.9-2.9,1.9-4.5,2.9-1.2.8-2.5,1.5-3.8,2.3a9.993,9.993,0,0,1-1.4.8,18.576,18.576,0,0,1-1.9,1.1c-1.1.6-2.2,1.2-3.2,1.8-.8.5-1.6.9-2.5,1.4s-1.8,1-2.7,1.4c-.9.5-1.9,1-2.8,1.4a25.57,25.57,0,0,1-2.4,1.1l-2.7,1.2c-.9.4-1.7.7-2.5,1-.5.2-1.1.4-1.6.6l-3.6,1.2c-1.2.3-2.4.6-3.5.8a4.979,4.979,0,0,1-1.9.4,7.823,7.823,0,0,1-2.7-.2,1.854,1.854,0,0,1-.7-.2,3.741,3.741,0,0,1-2.6-2.5l-.3-.9a9.521,9.521,0,0,1,.1-4.1c.1-.3.1-.7.2-1a27.586,27.586,0,0,1,.8-2.7c.2-.6.4-1.2.6-1.7-.2.4-.4.8-.6,1.3A28.494,28.494,0,0,0,1,35.2H1A12.09,12.09,0,0,0,.5,37,13.318,13.318,0,0,0,0,40.4a6.478,6.478,0,0,0,.2,2v.1a6.041,6.041,0,0,0,1.7,3c.1.1.1.2.2.3.1,0,.1.1.2.1a8.474,8.474,0,0,0,3.3,1.6,1.483,1.483,0,0,0,.7.1A3.749,3.749,0,0,0,7.4,47.7Z" fill="#1976d2"/>
      <path id="Path_43" data-name="Path 43" d="M54.5,30v-.4l-.3-2.4-.1.1c-1.3.8-2.7,1.8-4.2,2.7l-.9.6-1.5.9c-1.2.7-2.4,1.5-3.7,2.3-.8.5-1.5.9-2.3,1.4-.9.6-1.9,1.1-2.9,1.7-1.2.7-2.5,1.4-3.7,2.1-.5.3-1,.5-1.5.8l-1.2.6c-1.3.7-2.7,1.4-4,2s-2.5,1.2-3.7,1.8c-.5.2-1,.4-1.4.6-.6.3-1.2.5-1.8.8-1.1.5-2.3.9-3.3,1.3l-1.8.6a24.587,24.587,0,0,1-3.4.9c-1.1.2-2.2.4-3.2.5-.5,0-.9.1-1.3.1H7.6a8.807,8.807,0,0,1-1.7-.2h0a8.865,8.865,0,0,0,1.7.8h0c.3.1.7.2,1,.3a13.6,13.6,0,0,0,4.1.2,2.769,2.769,0,0,0,.9-.1,34.294,34.294,0,0,0,4.2-.8c.8-.2,1.6-.4,2.5-.7l2.7-.9c1.5-.5,3-1.2,4.6-1.8l.6-.3a1.421,1.421,0,0,1,.6-.2c1.5-.7,3.1-1.4,4.6-2.2,1.6-.8,3.2-1.6,4.8-2.5.1-.1.2-.1.4-.2s.3-.2.5-.3c1.6-.9,3.2-1.8,4.7-2.6,1.2-.7,2.4-1.4,3.5-2.1.6-.3,1.1-.7,1.6-1,1-.6,1.9-1.2,2.8-1.7A22.977,22.977,0,0,0,54,31.2h.1c.2-.1.3-.2.5-.3Z" fill="#1976d2"/>
    </g>
  </g>
</svg>
