<svg id="juno" xmlns="http://www.w3.org/2000/svg" width="73.85" height="12.87" viewBox="0 0 73.85 12.87">
  <path id="Path_9" data-name="Path 9" d="M14.27.16H8.14v2h6.13V7.63c0,2.31-1,3.07-3.93,3.07H0v2H10.34c4.08,0,5.95-1.45,5.95-5.05V.16Z" fill="#e01b22"/>
  <path id="Path_10" data-name="Path 10" d="M19,.16h2V6.7c0,3.29,1.71,4.19,6.12,4.19s6.12-.9,6.12-4.19V.16h2V6.7c0,4.48-2.55,6.17-8.15,6.17S19,11.22,19,6.7Z" fill="#e01b22"/>
  <path id="Path_11" data-name="Path 11" d="M40,12.68H38V.16h1.54c3.18,0,4.06,1.08,7.43,5.66,3.18,4.34,3.55,4.83,5.2,4.83h.09V.16h2V12.68h-1.5c-3,0-3.88-1-7.39-5.64C42,2.62,41.72,2.21,40.13,2.21H40Z" fill="#e01b22"/>
  <path id="Path_12" data-name="Path 12" d="M73.85,6.42c0,5-3,6.44-8.69,6.44s-8.69-1.45-8.69-6.44S59.42,0,65.15,0s8.69,1.45,8.69,6.42m-2.07,0c0-3.9-2.29-4.52-6.62-4.52s-6.62.62-6.62,4.52,2.29,4.52,6.62,4.52,6.62-.6,6.62-4.52" fill="#e01b22"/>
</svg>
