<svg xmlns="http://www.w3.org/2000/svg" width="118.58" height="94.84" viewBox="0 0 118.58 94.84">
  <g id="thecoffe" transform="translate(0 0)">
    <path id="Path_13" data-name="Path 13" d="M5.25,4.76H.62A.62.62,0,0,1,0,4.15V.62A.62.62,0,0,1,.62,0H15a.62.62,0,0,1,.62.62V4.15a.62.62,0,0,1-.62.62H10.37v17.3a.64.64,0,0,1-.62.62H5.86a.64.64,0,0,1-.62-.62Z"/>
    <path id="Path_14" data-name="Path 14" d="M17.26.62A.64.64,0,0,1,17.88,0h3.85a.62.62,0,0,1,.62.62V8.78H29.9V.62A.62.62,0,0,1,30.52,0h3.85A.64.64,0,0,1,35,.62V22.06a.64.64,0,0,1-.62.62H30.52a.62.62,0,0,1-.62-.62V13.54H22.35v8.52a.62.62,0,0,1-.62.62H17.88a.64.64,0,0,1-.62-.62Z"/>
    <path id="Path_15" data-name="Path 15" d="M40.1.62A.62.62,0,0,1,40.72,0H55.23a.61.61,0,0,1,.62.62V4.15a.61.61,0,0,1-.62.62H45.16v4h8.49a.64.64,0,0,1,.62.62v3.53a.61.61,0,0,1-.62.62H45.16v4.37H55.23a.61.61,0,0,1,.62.62v3.53a.61.61,0,0,1-.62.62H40.72a.62.62,0,0,1-.62-.62Z"/>
    <path id="Path_16" data-name="Path 16" d="M12.57,35.16a11.06,11.06,0,0,1,8,3.06.61.61,0,0,1,0,.92L18,41.81a.58.58,0,0,1-.82,0,6.73,6.73,0,0,0-4.44-1.68,6.74,6.74,0,0,0,0,13.47A7,7,0,0,0,17.18,52a.65.65,0,0,1,.86,0l2.57,2.73a.66.66,0,0,1,0,.89,11.3,11.3,0,0,1-8,3.19,11.85,11.85,0,0,1,0-23.7Z"/>
    <path id="Path_17" data-name="Path 17" d="M32.29,35.49a8.72,8.72,0,1,1-8.64,8.68,8.72,8.72,0,0,1,8.64-8.68Zm0,12.71a4,4,0,0,0,3.88-4,3.88,3.88,0,1,0-7.76,0A4,4,0,0,0,32.29,48.2Z"/>
    <path id="Path_18" data-name="Path 18" d="M45.32,36.12a.63.63,0,0,1,.63-.63H60.7a.63.63,0,0,1,.63.63v3.59a.63.63,0,0,1-.63.63H50.46v4.74h8.63a.65.65,0,0,1,.63.63V49.3a.65.65,0,0,1-.63.63H50.46v8a.65.65,0,0,1-.63.63H46a.63.63,0,0,1-.63-.63Z"/>
    <path id="Path_19" data-name="Path 19" d="M64.41,36.12a.63.63,0,0,1,.63-.63H79.79a.63.63,0,0,1,.63.63v3.59a.63.63,0,0,1-.63.63H69.55v4.74h8.63a.65.65,0,0,1,.63.63V49.3a.65.65,0,0,1-.63.63H69.55v8a.65.65,0,0,1-.63.63H65a.63.63,0,0,1-.63-.63Z"/>
    <path id="Path_20" data-name="Path 20" d="M82.9,36.12a.63.63,0,0,1,.63-.63H98.27a.63.63,0,0,1,.63.63v3.59a.63.63,0,0,1-.63.63H88v4.08h8.63a.65.65,0,0,1,.63.63v3.59a.62.62,0,0,1-.63.63H88V53.7H98.27a.63.63,0,0,1,.63.63v3.59a.63.63,0,0,1-.63.63H83.53a.63.63,0,0,1-.63-.63Z"/>
    <path id="Path_21" data-name="Path 21" d="M102.57,36.12a.63.63,0,0,1,.63-.63h14.75a.63.63,0,0,1,.63.63v3.59a.63.63,0,0,1-.63.63H107.7v4.08h8.63A.65.65,0,0,1,117,45v3.59a.62.62,0,0,1-.63.63H107.7V53.7h10.24a.63.63,0,0,1,.63.63v3.59a.63.63,0,0,1-.63.63H103.19a.63.63,0,0,1-.63-.63Z"/>
    <rect id="Rectangle_1" data-name="Rectangle 1" width="16.06" height="5.27" rx="0.86" transform="translate(24.32 53.6)"/>
    <path id="Path_22" data-name="Path 22" d="M32.29,71.16a8.72,8.72,0,1,1-8.64,8.68,8.72,8.72,0,0,1,8.64-8.68Zm0,12.71a4,4,0,0,0,3.88-4,3.88,3.88,0,1,0-7.76,0A4,4,0,0,0,32.29,83.87Z"/>
    <rect id="Rectangle_2" data-name="Rectangle 2" width="16.06" height="5.27" rx="0.86" transform="translate(24.32 89.27)"/>
    <path id="Path_23" data-name="Path 23" d="M.38,72.12A.65.65,0,0,1,1,71.49H4.93a.62.62,0,0,1,.63.63v8.3h8v-8.3a.63.63,0,0,1,.63-.63h3.92a.65.65,0,0,1,.63.63V93.91a.65.65,0,0,1-.63.63H14.14a.63.63,0,0,1-.63-.63V85.25h-8v8.66a.63.63,0,0,1-.63.63H1a.65.65,0,0,1-.63-.63Z"/>
    <path id="Path_24" data-name="Path 24" d="M45.32,72.12a.65.65,0,0,1,.63-.63h4a.63.63,0,0,1,.63.63V85.45a4.08,4.08,0,1,0,8.16,0V72.12a.63.63,0,0,1,.63-.63h4a.65.65,0,0,1,.63.63v13.6a9.39,9.39,0,0,1-18.77,0Z"/>
    <path id="Path_25" data-name="Path 25" d="M65.79,91.41l1.55-2.73a.85.85,0,0,1,1.12-.2c.13.07,2.5,1.81,4.68,1.81a2.06,2.06,0,0,0,2.27-2c0-1.38-1.15-2.44-3.39-3.32-2.83-1.12-6.39-3.33-6.39-7.28,0-3.26,2.54-6.55,7.61-6.55a12.24,12.24,0,0,1,7,2.47.83.83,0,0,1,.2,1.05L78.8,77.22c-.23.36-.82.66-1.12.43s-2.7-2-4.71-2a1.91,1.91,0,0,0-2.07,1.68c0,1.22,1,2.14,3.59,3.19s6.65,3,6.65,7.51c0,3.39-2.93,6.81-7.77,6.81-4.28,0-6.65-1.78-7.41-2.54C65.63,92,65.53,91.87,65.79,91.41Z"/>
    <path id="Path_26" data-name="Path 26" d="M83.46,72.12a.63.63,0,0,1,.63-.63H98.83a.63.63,0,0,1,.63.63v3.59a.62.62,0,0,1-.63.63H88.6v4.08h8.63a.65.65,0,0,1,.63.63v3.59a.62.62,0,0,1-.63.63H88.6V89.7H98.83a.63.63,0,0,1,.63.63v3.59a.63.63,0,0,1-.63.63H84.09a.63.63,0,0,1-.63-.63Z"/>
  </g>
</svg>
